<?xml version="1.0" encoding="utf-8"?>
<!-- Generator: Adobe Illustrator 24.3.0, SVG Export Plug-In . SVG Version: 6.00 Build 0)  -->
<svg version="1.1" id="Layer_1" xmlns="http://www.w3.org/2000/svg" xmlns:xlink="http://www.w3.org/1999/xlink" x="0px" y="0px"
	 viewBox="0 0 128 128" style="enable-background:new 0 0 128 128;" xml:space="preserve">
<style type="text/css">
	.st0{fill:#2D3E50;}
</style>
<path class="st0" d="M108.2,82.2c-0.5-3-2.4-5.5-5.1-6.8C94.3,71,74.9,64.4,74.9,64.4V58l0.5-0.4c3.8-2.9,6.3-7.1,7-11.8l0.1-0.7
	h0.5c2.9,0,5.5-1.8,6.6-4.5c0.6-1.1,1-2.4,1-3.8c0-0.9-0.2-1.8-0.5-2.7c-0.2-0.9-0.7-1.8-1.4-2.3l-1.8-1.1l0.5-1.9
	c3.2-14.1-7.7-26.8-22.3-27.1c-0.4,0-0.7,0-1.1,0c-0.3,0-0.7,0-1.1,0C48.3,2.2,37.4,14.9,40.6,29l0.5,1.9L39.3,32
	c-0.8,0.6-1.3,1.4-1.4,2.3c-0.3,0.9-0.5,1.8-0.5,2.7c0,1.3,0.3,2.6,1,3.8c1.1,2.7,3.7,4.5,6.6,4.5h0.5l0.1,0.7
	c0.8,4.7,3.3,8.9,7,11.8l0.5,0.4v6.4c0,0-19.4,6.5-28.2,10.9c-2.7,1.3-4.6,3.9-5.1,6.8c-0.9,5-1.3,11.8-1.5,16.9
	c-0.2,3.7,2.8,6.8,6.5,6.8h14.3c1.5,0,3,0.7,4,1.9c2.1,2.6,4.3,5.2,6.6,7.6c3.2,3.4,6.7,6.5,10.5,9.2c1.1,0.9,2.4,1.4,3.8,1.5h0.2
	c1.4,0,2.8-0.6,3.8-1.5c3.8-2.8,7.2-5.8,10.4-9.2c2.3-2.4,4.5-5,6.6-7.6c1-1.2,2.4-1.9,4-1.9h15.9c2.8,0,5.1-2.3,5-5.2
	C109.6,95.6,109.1,87.7,108.2,82.2z M81.6,100.7c-1.3,1.8-2.7,3.6-4.2,5.3c-1.3,1.6-2.7,3.2-4.2,4.6c-2.8,3-5.9,5.8-9.3,8.2
	c-3.3-2.5-6.4-5.2-9.3-8.2c-1.4-1.5-2.8-3-4.2-4.6c-1.4-1.7-2.8-3.4-4.2-5.3c-1.9-2.6-3.9-5.8-3.9-9.1c0-5.2,4.2-9.4,9.4-9.4
	c2.5,0,4.9,1,6.7,2.8l5.4,5.4l5.4-5.4c2.7-2.7,6.8-3.5,10.3-2c1.1,0.5,2.2,1.2,3.1,2c1.8,1.8,2.8,4.2,2.8,6.7
	C85.5,94.9,83.5,98,81.6,100.7z"/>
<path d="M85.5,91.6c0,3.3-2,6.4-3.9,9.1c-1.3,1.8-2.7,3.6-4.2,5.3c-1.3,1.6-2.7,3.2-4.2,4.6c-2.8,3-5.9,5.8-9.3,8.2
	c-3.3-2.5-6.4-5.2-9.3-8.2c-1.4-1.5-2.8-3-4.2-4.6c-1.4-1.7-2.8-3.4-4.2-5.3c-1.9-2.6-3.9-5.8-3.9-9.1c0-5.2,4.2-9.4,9.4-9.4
	c2.5,0,4.9,1,6.7,2.8l5.4,5.4l5.4-5.4c2.7-2.7,6.8-3.5,10.3-2c1.1,0.5,2.2,1.2,3.1,2C84.5,86.7,85.5,89.1,85.5,91.6z"/>
</svg>
