<?xml version="1.0" encoding="utf-8"?>
<!-- Generator: Adobe Illustrator 24.3.0, SVG Export Plug-In . SVG Version: 6.00 Build 0)  -->
<svg version="1.1" id="Capa_1" xmlns="http://www.w3.org/2000/svg" xmlns:xlink="http://www.w3.org/1999/xlink" x="0px" y="0px"
	 viewBox="0 0 512 512" style="enable-background:new 0 0 512 512;" xml:space="preserve">
<style type="text/css">
	.st0{fill:#4C4C4C;}
</style>
<path class="st0" d="M467,76h-14.8v225c0,41.4-33.8,75-75.2,75H215.6l-32,29.8h127.2l85.6,85.8c9.4,9.4,25.6,2.8,25.6-10.6v-75.2h45
	c24.8,0,45-20,45-44.8V121C512,96.2,491.8,76,467,76z"/>
<path d="M377,16H45C20.2,16,0,36.2,0,61v240c0,24.8,20.2,45,45,45c31.5,0,35.7,0,35.7,0H90v75c0,13.4,16.2,20,25.6,10.6
	c41.9-41.9,12.5-12.5,81.2-81.2c2.8-2.8,6.6-4.4,10.6-4.4H377c24.8,0,45-20.2,45-45c0-140.1,0-99.6,0-240C422,36.2,401.8,16,377,16z
	 M75,106h212c8.3,0,15,6.7,15,15s-6.7,15-15,15H75c-8.3,0-15-6.7-15-15S66.7,106,75,106z M227,256H75c-8.3,0-15-6.7-15-15
	s6.7-15,15-15h152c8.3,0,15,6.7,15,15C242,249.3,235.3,256,227,256z M347,196H75c-8.3,0-15-6.7-15-15s6.7-15,15-15h272
	c8.3,0,15,6.7,15,15S355.3,196,347,196z"/>
</svg>
