<?xml version="1.0" encoding="utf-8"?>
<!-- Generator: Adobe Illustrator 24.3.0, SVG Export Plug-In . SVG Version: 6.00 Build 0)  -->
<svg version="1.1" id="Capa_1" xmlns="http://www.w3.org/2000/svg" xmlns:xlink="http://www.w3.org/1999/xlink" x="0px" y="0px"
	 viewBox="0 0 512 512" style="enable-background:new 0 0 512 512;" xml:space="preserve">
<style type="text/css">
	.st0{fill:#686666;}
</style>
<path class="st0" d="M329.2,353.9c-2.6-4.9-7.7-7.9-13.2-7.9h-15v-75c0-8.3-6.7-15-15-15h-60c-8.3,0-15,6.7-15,15v75h-15
	c-5.5,0-10.6,3-13.2,7.9s-2.3,10.8,0.7,15.4l60,90c2.8,4.2,7.5,6.7,12.5,6.7s9.7-2.5,12.5-6.7l60-90
	C331.5,364.7,331.8,358.8,329.2,353.9z"/>
<path d="M435.5,175.4c-1.3-17.9-8.6-34.6-21.4-47.5c-19.4-19.4-48.6-25.2-74.2-18C315.2,70.3,272.8,46,226,46
	c-70.3,0-128.3,54.1-134.3,124.1C39.2,183.3,0,231.1,0,286c0,66.2,54.8,120,121,120h50.9l-13.4-20c-9.2-13.8-10.1-31.5-2.2-46.2
	c5.4-10.1,14.3-17.5,24.7-21.2V271c0-24.8,20.2-45,45-45h60c24.8,0,45,20.2,45,45v47.6c10.4,3.7,19.3,11.1,24.7,21.2
	c7.8,14.6,7,32.3-2.2,46.2L340.1,406H391c66.2,0,121-53.8,121-120C512,236.5,480.9,193.6,435.5,175.4z"/>
</svg>
