<?xml version="1.0" encoding="utf-8"?>
<!-- Generator: Adobe Illustrator 24.3.0, SVG Export Plug-In . SVG Version: 6.00 Build 0)  -->
<svg version="1.1" id="Capa_1" xmlns="http://www.w3.org/2000/svg" xmlns:xlink="http://www.w3.org/1999/xlink" x="0px" y="0px"
	 viewBox="0 0 486.3 486.3" style="enable-background:new 0 0 486.3 486.3;" xml:space="preserve">
<style type="text/css">
	.st0{fill:#3F3F3F;}
</style>
<path d="M378.1,273.3l-59-17.6c0,0-0.1,0-0.1,0c-3.8,4.7-7.7,9-11.7,12.9c-0.1,0.1,0,0.2,0.1,0.2l11.3,3.4c0.1,0,0.1,0.1,0.1,0.2
	l-68.9,105.1c-3.7,5.6-12.9,5.6-16.5,0l-68.4-104.3c0-0.1,0-0.2,0.1-0.2l14.2-4.2c0.1,0,0.1-0.1,0.1-0.2c-4.1-4-8-8.3-11.7-12.9
	c0,0-0.1-0.1-0.1,0l-59,17.6C95,277.3,86,289.4,86,303.2v24.2c0,90.9,76.1,164.1,166.8,158.6c82.4-5,147.6-73.3,147.6-156.9v-25.9
	C400.4,289.4,391.3,277.3,378.1,273.3z"/>
<path class="st0" d="M344.6,128c1.1-7.4,1.4-16.7,1.5-23.6c5.1,2.7,14.6,3.1,14.6,3.1c-5.9-7-27.7-75-35.9-80.8
	c15.3-3.3,26.4-11.8,26.4-11.8c-15.3,0.8-41.7-5.5-49.5-7.5C292.6,2.8,282.4,0,271.5,0h-54.7c-22.9,0-43.7,11.5-55.2,29.8
	c-9.7,15.3-27.4,46-40.1,60.2c0,0,6.5-0.8,14.8-3.3c2.8-0.8,5.7-1.9,8.7-3.1c-3.1,18.1-3.5,37.7-3.2,44.3
	c-7.9,3.2-13.9,10.6-16.5,20.4c-2.5,9.3-1.8,20.2,1.8,30.6c5.7,16.4,17.9,28.5,31.2,31.2c0.1,0.2,0.2,0.4,0.3,0.5v5.1l0.2-0.1
	c0.1,5,1.4,10.6,5,16.5c0,0,21.5,33,49.5,55.8l0-0.4c4.3,4.3,10.1,7.2,16.5,7.2h29c6.5,0,12.2-2.8,16.5-7.2l0,0.4
	c27.9-22.9,49.5-55.8,49.5-55.8c3.6-5.8,4.9-11.4,5-16.5l0.2,0.1v-6.3c12.4-3.3,24-14.8,29.5-30.6
	C367.1,156.6,360.6,134.5,344.6,128z M278.1,241.3c-4.4,3.4-10.2,4.2-15.4,2.1c-5.1-2.1-8.8-6.8-9.5-12.3c-0.2-1.3-1.3-2.3-2.6-2.3
	h-12.9c-1.3,0-2.4,1-2.6,2.3c-0.7,5.5-4.4,10.2-9.5,12.3c-5.1,2.1-11,1.3-15.4-2.1l-2.5-2l6.1-17.3c3.4-9.5,12.4-15.8,22.4-15.8
	h15.9c10.1,0,19,6.3,22.4,15.8l6.1,17.2L278.1,241.3z M344.1,173.8c-3.3,9.4-8.9,15.6-14.4,18.7v-20.6c0-2.5-2-4.5-4.5-4.5h-5.7
	c-2,0-3.7,1.3-4.3,3.1l-7.2,22l-3.3,10.3c-4.4,9.2-6.6,18-13.2,26.3c0.2-1.8,0.4-3.6,0.4-5.5c0-25.3-21.4-45.9-47.9-45.9
	c-26.4,0-47.8,20.6-47.8,45.9c0,1.9,0.2,3.7,0.4,5.6c-6.6-8.3-8.8-17.1-13.2-26.3l-3.3-10.3l-7.2-22c-0.6-1.9-2.3-3.1-4.3-3.1H163
	c-2.5,0-4.5,2-4.5,4.5v21.7c-5.9-2.5-12.6-9.2-16.3-19.8c-2.5-7.3-3.1-15.1-1.5-21.3c0.8-3,2.8-8.2,7.5-9.8c0.5-0.2,1.5-0.3,2-0.3
	c4-0.4,7-3.6,7.2-7.6c0.2-3.7,0.6-7.3,1.5-10.8c12-47.1,53-50.5,53-50.5c-7.4,17.4-19.3,24.7-19.3,24.7c39.4-16,51.6-33.4,51.6-33.4
	c26.2,36.4,62.3,52.1,83.1,58.6c0.6,3.7,1.4,7.4,1.6,11.3c0.2,4,3.3,7.2,7.2,7.6c0.5,0,1.5,0.1,2,0.3
	C345.2,145.2,349.4,158.6,344.1,173.8z"/>
</svg>
