<?xml version="1.0" encoding="utf-8"?>
<!-- Generator: Adobe Illustrator 24.3.0, SVG Export Plug-In . SVG Version: 6.00 Build 0)  -->
<svg version="1.1" id="bold" xmlns="http://www.w3.org/2000/svg" xmlns:xlink="http://www.w3.org/1999/xlink" x="0px" y="0px"
	 viewBox="0 0 512 512" style="enable-background:new 0 0 512 512;" xml:space="preserve">
<style type="text/css">
	.st0{fill:#4F4F4F;}
</style>
<path d="M487.3,268.5c-3.6-8-3.6-17.1,0-25l19.1-42c7.1-15.6,7.4-33.7,0.9-49.6c-6.6-15.9-19.6-28.4-35.6-34.4l-43.2-16.2
	c-8.2-3.1-14.6-9.5-17.7-17.7l-16.2-43.2c-6-16.1-18.6-29.1-34.5-35.6c-15.9-6.6-33.9-6.3-49.6,0.9l-42,19.1c-8,3.6-17.1,3.6-25,0
	l-42-19.1c-15.6-7.1-33.7-7.4-49.6-0.9c-15.8,6.6-28.4,19.6-34.4,35.6l-16.2,43.2c-3.1,8.2-9.5,14.6-17.7,17.7l-43.2,16.2
	c-16.1,6-29,18.6-35.6,34.5c-6.6,15.9-6.3,33.9,0.8,49.5l19.1,42c3.6,8,3.6,17.1,0,25l-19.1,42c-7.1,15.6-7.4,33.7-0.9,49.6
	c6.6,15.9,19.6,28.4,35.6,34.4l43.2,16.2c8.2,3.1,14.6,9.5,17.7,17.7l16.2,43.2c6,16.1,18.6,29.1,34.4,35.6
	c7.6,3.1,15.7,4.7,23.8,4.7c8.8,0,17.6-1.9,25.8-5.6l42-19.1c8-3.6,17.1-3.6,25,0l42,19.1c15.6,7.1,33.7,7.4,49.6,0.9
	c15.9-6.6,28.4-19.6,34.5-35.6l16.2-43.2c3.1-8.2,9.5-14.6,17.7-17.7l43.2-16.2c16.1-6,29.1-18.6,35.6-34.5s6.3-33.9-0.9-49.6
	L487.3,268.5z M299,360.3c0,13-10.7,23.7-23.9,23.7h-39.2c-11.5,0-23.9-8.5-23.9-27.5V345h87V360.3z M316.8,297.5
	c-9,7.3-14.7,16.6-16.6,26.5H212c-1.5-9.6-6.8-18.6-15.6-25.4c-23.7-18.6-37.1-46.5-36.5-76.8c1.1-50.8,43.5-92.8,94.5-93.4
	c25.8-0.6,50.6,9.4,69.1,27.7c18.3,17.9,28.4,42,28.4,67.6C352,252.5,339.2,279.4,316.8,297.5z"/>
<g>
	<path class="st0" d="M299,344.8v15.3c0,13-10.7,23.7-23.9,23.7h-39.2c-11.5,0-23.9-8.5-23.9-27.5v-11.5H299z"/>
	<path class="st0" d="M352,223.6c0,28.8-12.8,55.7-35.2,73.8c-9,7.3-14.7,16.6-16.6,26.5h-88.1c-1.5-9.6-6.8-18.6-15.6-25.4
		c-23.7-18.6-37.1-46.5-36.5-76.8c1.1-50.8,43.5-92.8,94.5-93.4c25.8-0.6,50.6,9.4,69.1,27.7C342,173.8,352,198,352,223.6z"/>
</g>
</svg>
