<svg id="Layer_1" data-name="Layer 1" xmlns="http://www.w3.org/2000/svg" xmlns:xlink="http://www.w3.org/1999/xlink" viewBox="0 0 64 64"><defs><style>.cls-1{fill:#333;}.cls-2{fill:#8cc63f;}.cls-3{fill:url(#linear-gradient);}</style><linearGradient id="linear-gradient" x1="7.5" y1="38.18" x2="11.44" y2="25.15" gradientUnits="userSpaceOnUse"><stop offset="0" stop-color="#8cc63f"/><stop offset="1" stop-color="#333"/></linearGradient></defs><g id="final"><path class="cls-1" d="M63.61,58.57H47.87l-10-13.77-9-12.56H43a7.39,7.39,0,0,0,1.51-.07,6.82,6.82,0,0,0-.62-13.38,6.63,6.63,0,0,0-1-.08h-16l-.08-.12-1.71-2.44L17.56,5.43H43a19.93,19.93,0,0,1,6,.92l.14,0h0A20,20,0,0,1,52.43,43Z"/><polygon class="cls-2" points="38.13 58.57 22.43 58.57 3.98 32.22 0.44 27.17 16.14 27.17 19.68 32.22 38.13 58.57"/><polygon class="cls-3" points="19.73 32.24 3.94 32.24 0.39 27.17 16.18 27.17 19.73 32.24"/></g></svg>