<svg id="Layer_1" data-name="Layer 1" xmlns="http://www.w3.org/2000/svg" xmlns:xlink="http://www.w3.org/1999/xlink" viewBox="0 0 432 432"><defs><style>.cls-1{fill:#f2f2f2;}.cls-2{fill:#333;}.cls-3{fill:#8cc63f;}.cls-4{fill:url(#linear-gradient);}</style><linearGradient id="linear-gradient" x1="94.57" y1="231.58" x2="110.89" y2="177.65" gradientUnits="userSpaceOnUse"><stop offset="0" stop-color="#8cc63f"/><stop offset="1" stop-color="#333"/></linearGradient></defs><circle class="cls-1" cx="216" cy="216" r="216"/><g id="final"><path class="cls-2" d="M530.84,410H465.69L424.3,353,387,301H445.4a30.7,30.7,0,0,0,6.24-.28A28.26,28.26,0,0,0,445,245H378.74l-.34-.49-7.08-10.12L340.24,190H445.32a82.6,82.6,0,0,1,24.9,3.82l.55.18h0A82.67,82.67,0,0,1,484.55,345.4Z" transform="translate(-204 -94)"/><polygon class="cls-3" points="221.4 316 156.4 316 80 206.89 65.37 186 130.37 186 145 206.89 221.4 316"/><polygon class="cls-4" points="145.21 207 79.86 207 65.16 186 130.5 186 145.21 207"/></g></svg>